<mxfile host="app.diagrams.net" agent="Mozilla/5.0 (Macintosh; Intel Mac OS X 10.15; rv:135.0) Gecko/20100101 Firefox/135.0" version="26.0.14">
  <diagram id="C5RBs43oDa-KdzZeNtuy" name="Page-1">
    <mxGraphModel dx="1060" dy="714" grid="1" gridSize="10" guides="1" tooltips="1" connect="1" arrows="1" fold="1" page="1" pageScale="1" pageWidth="827" pageHeight="1169" math="0" shadow="0">
      <root>
        <mxCell id="WIyWlLk6GJQsqaUBKTNV-0" />
        <mxCell id="WIyWlLk6GJQsqaUBKTNV-1" parent="WIyWlLk6GJQsqaUBKTNV-0" />
        <mxCell id="qUYnIyId9ZNR1EVSOJuX-28" style="edgeStyle=orthogonalEdgeStyle;rounded=0;orthogonalLoop=1;jettySize=auto;html=1;exitX=0.5;exitY=1;exitDx=0;exitDy=0;entryX=0.5;entryY=0;entryDx=0;entryDy=0;" edge="1" parent="WIyWlLk6GJQsqaUBKTNV-1" source="qUYnIyId9ZNR1EVSOJuX-0" target="qUYnIyId9ZNR1EVSOJuX-5">
          <mxGeometry relative="1" as="geometry" />
        </mxCell>
        <mxCell id="qUYnIyId9ZNR1EVSOJuX-0" value="Start" style="ellipse;whiteSpace=wrap;html=1;" vertex="1" parent="WIyWlLk6GJQsqaUBKTNV-1">
          <mxGeometry x="160" y="60" width="120" height="80" as="geometry" />
        </mxCell>
        <mxCell id="qUYnIyId9ZNR1EVSOJuX-2" value="End" style="ellipse;whiteSpace=wrap;html=1;" vertex="1" parent="WIyWlLk6GJQsqaUBKTNV-1">
          <mxGeometry x="510" y="880" width="120" height="80" as="geometry" />
        </mxCell>
        <mxCell id="qUYnIyId9ZNR1EVSOJuX-27" style="edgeStyle=orthogonalEdgeStyle;rounded=0;orthogonalLoop=1;jettySize=auto;html=1;exitX=1;exitY=0.5;exitDx=0;exitDy=0;entryX=0;entryY=0.5;entryDx=0;entryDy=0;" edge="1" parent="WIyWlLk6GJQsqaUBKTNV-1" source="qUYnIyId9ZNR1EVSOJuX-5" target="qUYnIyId9ZNR1EVSOJuX-17">
          <mxGeometry relative="1" as="geometry" />
        </mxCell>
        <mxCell id="qUYnIyId9ZNR1EVSOJuX-5" value="Seed paper from Google Scholar" style="rounded=0;whiteSpace=wrap;html=1;" vertex="1" parent="WIyWlLk6GJQsqaUBKTNV-1">
          <mxGeometry x="160" y="170" width="120" height="60" as="geometry" />
        </mxCell>
        <mxCell id="qUYnIyId9ZNR1EVSOJuX-12" value="Yes" style="edgeStyle=orthogonalEdgeStyle;rounded=0;orthogonalLoop=1;jettySize=auto;html=1;exitX=0.5;exitY=1;exitDx=0;exitDy=0;" edge="1" parent="WIyWlLk6GJQsqaUBKTNV-1" source="qUYnIyId9ZNR1EVSOJuX-9" target="qUYnIyId9ZNR1EVSOJuX-11">
          <mxGeometry relative="1" as="geometry" />
        </mxCell>
        <mxCell id="qUYnIyId9ZNR1EVSOJuX-13" style="edgeStyle=orthogonalEdgeStyle;rounded=0;orthogonalLoop=1;jettySize=auto;html=1;exitX=1;exitY=0.5;exitDx=0;exitDy=0;" edge="1" parent="WIyWlLk6GJQsqaUBKTNV-1" source="qUYnIyId9ZNR1EVSOJuX-9">
          <mxGeometry relative="1" as="geometry">
            <mxPoint x="495" y="405" as="targetPoint" />
          </mxGeometry>
        </mxCell>
        <mxCell id="qUYnIyId9ZNR1EVSOJuX-14" value="No" style="edgeLabel;html=1;align=center;verticalAlign=middle;resizable=0;points=[];" vertex="1" connectable="0" parent="qUYnIyId9ZNR1EVSOJuX-13">
          <mxGeometry x="-0.1802" y="-1" relative="1" as="geometry">
            <mxPoint as="offset" />
          </mxGeometry>
        </mxCell>
        <mxCell id="qUYnIyId9ZNR1EVSOJuX-9" value="&lt;p class=&quot;p1&quot;&gt;FWCI &amp;gt;= &lt;span class=&quot;s1&quot;&gt;1.2&lt;/span&gt; &lt;br&gt;&lt;/p&gt;&lt;p class=&quot;p1&quot;&gt;Citations &amp;gt;= &lt;span class=&quot;s1&quot;&gt;6&lt;/span&gt;&lt;/p&gt;" style="rhombus;whiteSpace=wrap;html=1;" vertex="1" parent="WIyWlLk6GJQsqaUBKTNV-1">
          <mxGeometry x="292.5" y="337.5" width="135" height="135" as="geometry" />
        </mxCell>
        <mxCell id="qUYnIyId9ZNR1EVSOJuX-46" style="edgeStyle=orthogonalEdgeStyle;rounded=0;orthogonalLoop=1;jettySize=auto;html=1;exitX=0.5;exitY=1;exitDx=0;exitDy=0;entryX=0.5;entryY=0;entryDx=0;entryDy=0;" edge="1" parent="WIyWlLk6GJQsqaUBKTNV-1" source="qUYnIyId9ZNR1EVSOJuX-11" target="qUYnIyId9ZNR1EVSOJuX-36">
          <mxGeometry relative="1" as="geometry" />
        </mxCell>
        <mxCell id="qUYnIyId9ZNR1EVSOJuX-11" value="Store paper and author data in relational tables" style="rounded=0;whiteSpace=wrap;html=1;" vertex="1" parent="WIyWlLk6GJQsqaUBKTNV-1">
          <mxGeometry x="300" y="505" width="120" height="60" as="geometry" />
        </mxCell>
        <mxCell id="qUYnIyId9ZNR1EVSOJuX-58" style="edgeStyle=orthogonalEdgeStyle;rounded=0;orthogonalLoop=1;jettySize=auto;html=1;exitX=0.5;exitY=1;exitDx=0;exitDy=0;entryX=1;entryY=0;entryDx=0;entryDy=0;" edge="1" parent="WIyWlLk6GJQsqaUBKTNV-1" source="qUYnIyId9ZNR1EVSOJuX-15" target="qUYnIyId9ZNR1EVSOJuX-36">
          <mxGeometry relative="1" as="geometry">
            <Array as="points">
              <mxPoint x="555" y="590" />
              <mxPoint x="394" y="590" />
            </Array>
          </mxGeometry>
        </mxCell>
        <mxCell id="qUYnIyId9ZNR1EVSOJuX-15" value="Discard paper" style="rounded=0;whiteSpace=wrap;html=1;" vertex="1" parent="WIyWlLk6GJQsqaUBKTNV-1">
          <mxGeometry x="495" y="375" width="120" height="60" as="geometry" />
        </mxCell>
        <mxCell id="qUYnIyId9ZNR1EVSOJuX-26" style="edgeStyle=orthogonalEdgeStyle;rounded=0;orthogonalLoop=1;jettySize=auto;html=1;exitX=0.5;exitY=1;exitDx=0;exitDy=0;entryX=0.5;entryY=0;entryDx=0;entryDy=0;" edge="1" parent="WIyWlLk6GJQsqaUBKTNV-1" source="qUYnIyId9ZNR1EVSOJuX-17" target="qUYnIyId9ZNR1EVSOJuX-18">
          <mxGeometry relative="1" as="geometry" />
        </mxCell>
        <mxCell id="qUYnIyId9ZNR1EVSOJuX-17" value="Identify OpenAlex ID" style="rounded=0;whiteSpace=wrap;html=1;" vertex="1" parent="WIyWlLk6GJQsqaUBKTNV-1">
          <mxGeometry x="300" y="170" width="120" height="60" as="geometry" />
        </mxCell>
        <mxCell id="qUYnIyId9ZNR1EVSOJuX-25" style="edgeStyle=orthogonalEdgeStyle;rounded=0;orthogonalLoop=1;jettySize=auto;html=1;exitX=0.5;exitY=1;exitDx=0;exitDy=0;entryX=0.5;entryY=0;entryDx=0;entryDy=0;" edge="1" parent="WIyWlLk6GJQsqaUBKTNV-1" source="qUYnIyId9ZNR1EVSOJuX-18" target="qUYnIyId9ZNR1EVSOJuX-9">
          <mxGeometry relative="1" as="geometry" />
        </mxCell>
        <mxCell id="qUYnIyId9ZNR1EVSOJuX-18" value="&lt;div&gt;Retrieve papers citing seed ID&amp;nbsp;&lt;/div&gt;&lt;div&gt;(&quot;first level&quot;)&lt;/div&gt;" style="rounded=0;whiteSpace=wrap;html=1;" vertex="1" parent="WIyWlLk6GJQsqaUBKTNV-1">
          <mxGeometry x="300" y="260" width="120" height="60" as="geometry" />
        </mxCell>
        <mxCell id="qUYnIyId9ZNR1EVSOJuX-39" style="edgeStyle=orthogonalEdgeStyle;rounded=0;orthogonalLoop=1;jettySize=auto;html=1;exitX=1;exitY=0.5;exitDx=0;exitDy=0;entryX=1;entryY=0.5;entryDx=0;entryDy=0;" edge="1" parent="WIyWlLk6GJQsqaUBKTNV-1" source="qUYnIyId9ZNR1EVSOJuX-36" target="qUYnIyId9ZNR1EVSOJuX-18">
          <mxGeometry relative="1" as="geometry">
            <Array as="points">
              <mxPoint x="650" y="652" />
              <mxPoint x="650" y="290" />
            </Array>
          </mxGeometry>
        </mxCell>
        <mxCell id="qUYnIyId9ZNR1EVSOJuX-41" value="No" style="edgeLabel;html=1;align=center;verticalAlign=middle;resizable=0;points=[];" vertex="1" connectable="0" parent="qUYnIyId9ZNR1EVSOJuX-39">
          <mxGeometry x="0.0237" y="-2" relative="1" as="geometry">
            <mxPoint as="offset" />
          </mxGeometry>
        </mxCell>
        <mxCell id="qUYnIyId9ZNR1EVSOJuX-47" style="edgeStyle=orthogonalEdgeStyle;rounded=0;orthogonalLoop=1;jettySize=auto;html=1;exitX=0.5;exitY=1;exitDx=0;exitDy=0;entryX=0.5;entryY=0;entryDx=0;entryDy=0;" edge="1" parent="WIyWlLk6GJQsqaUBKTNV-1" source="qUYnIyId9ZNR1EVSOJuX-36" target="qUYnIyId9ZNR1EVSOJuX-44">
          <mxGeometry relative="1" as="geometry" />
        </mxCell>
        <mxCell id="qUYnIyId9ZNR1EVSOJuX-48" value="Yes" style="edgeLabel;html=1;align=center;verticalAlign=middle;resizable=0;points=[];" vertex="1" connectable="0" parent="qUYnIyId9ZNR1EVSOJuX-47">
          <mxGeometry x="-0.0629" y="1" relative="1" as="geometry">
            <mxPoint as="offset" />
          </mxGeometry>
        </mxCell>
        <mxCell id="qUYnIyId9ZNR1EVSOJuX-36" value="&lt;div&gt;All&amp;nbsp;&lt;/div&gt;&lt;div&gt;relevant first-level papers collected&lt;/div&gt;" style="rhombus;whiteSpace=wrap;html=1;" vertex="1" parent="WIyWlLk6GJQsqaUBKTNV-1">
          <mxGeometry x="292.5" y="584.5" width="135" height="135" as="geometry" />
        </mxCell>
        <mxCell id="qUYnIyId9ZNR1EVSOJuX-38" style="edgeStyle=orthogonalEdgeStyle;rounded=0;orthogonalLoop=1;jettySize=auto;html=1;exitX=0.5;exitY=0;exitDx=0;exitDy=0;entryX=0;entryY=0.5;entryDx=0;entryDy=0;" edge="1" parent="WIyWlLk6GJQsqaUBKTNV-1" source="qUYnIyId9ZNR1EVSOJuX-37" target="qUYnIyId9ZNR1EVSOJuX-9">
          <mxGeometry relative="1" as="geometry" />
        </mxCell>
        <mxCell id="qUYnIyId9ZNR1EVSOJuX-37" value="&lt;div&gt;Retrieve papers citing first-level papers&lt;/div&gt;&amp;nbsp;(&quot;second level&quot;)" style="rounded=0;whiteSpace=wrap;html=1;" vertex="1" parent="WIyWlLk6GJQsqaUBKTNV-1">
          <mxGeometry x="90" y="622" width="120" height="60" as="geometry" />
        </mxCell>
        <mxCell id="qUYnIyId9ZNR1EVSOJuX-50" value="" style="edgeStyle=orthogonalEdgeStyle;rounded=0;orthogonalLoop=1;jettySize=auto;html=1;" edge="1" parent="WIyWlLk6GJQsqaUBKTNV-1" source="qUYnIyId9ZNR1EVSOJuX-44" target="qUYnIyId9ZNR1EVSOJuX-49">
          <mxGeometry relative="1" as="geometry" />
        </mxCell>
        <mxCell id="qUYnIyId9ZNR1EVSOJuX-53" value="Yes" style="edgeLabel;html=1;align=center;verticalAlign=middle;resizable=0;points=[];" vertex="1" connectable="0" parent="qUYnIyId9ZNR1EVSOJuX-50">
          <mxGeometry x="-0.0286" relative="1" as="geometry">
            <mxPoint x="1" as="offset" />
          </mxGeometry>
        </mxCell>
        <mxCell id="qUYnIyId9ZNR1EVSOJuX-54" style="edgeStyle=orthogonalEdgeStyle;rounded=0;orthogonalLoop=1;jettySize=auto;html=1;exitX=0;exitY=0.5;exitDx=0;exitDy=0;entryX=0.5;entryY=1;entryDx=0;entryDy=0;" edge="1" parent="WIyWlLk6GJQsqaUBKTNV-1" source="qUYnIyId9ZNR1EVSOJuX-44" target="qUYnIyId9ZNR1EVSOJuX-37">
          <mxGeometry relative="1" as="geometry" />
        </mxCell>
        <mxCell id="qUYnIyId9ZNR1EVSOJuX-55" value="No" style="edgeLabel;html=1;align=center;verticalAlign=middle;resizable=0;points=[];" vertex="1" connectable="0" parent="qUYnIyId9ZNR1EVSOJuX-54">
          <mxGeometry x="-0.5312" relative="1" as="geometry">
            <mxPoint x="1" as="offset" />
          </mxGeometry>
        </mxCell>
        <mxCell id="qUYnIyId9ZNR1EVSOJuX-44" value="&lt;div&gt;All&amp;nbsp;&lt;/div&gt;&lt;div&gt;relevant second-level papers collected&lt;/div&gt;" style="rhombus;whiteSpace=wrap;html=1;" vertex="1" parent="WIyWlLk6GJQsqaUBKTNV-1">
          <mxGeometry x="292.5" y="760" width="135" height="135" as="geometry" />
        </mxCell>
        <mxCell id="qUYnIyId9ZNR1EVSOJuX-51" style="edgeStyle=orthogonalEdgeStyle;rounded=0;orthogonalLoop=1;jettySize=auto;html=1;exitX=0.5;exitY=1;exitDx=0;exitDy=0;entryX=0.5;entryY=0;entryDx=0;entryDy=0;" edge="1" parent="WIyWlLk6GJQsqaUBKTNV-1" source="qUYnIyId9ZNR1EVSOJuX-49" target="qUYnIyId9ZNR1EVSOJuX-2">
          <mxGeometry relative="1" as="geometry" />
        </mxCell>
        <mxCell id="qUYnIyId9ZNR1EVSOJuX-49" value="Relational tables output in Excel Workbook" style="whiteSpace=wrap;html=1;" vertex="1" parent="WIyWlLk6GJQsqaUBKTNV-1">
          <mxGeometry x="515" y="797.5" width="120" height="60" as="geometry" />
        </mxCell>
      </root>
    </mxGraphModel>
  </diagram>
</mxfile>
